<?xml version="1.0" encoding="UTF-8"?>
<!DOCTYPE svg PUBLIC "-//W3C//DTD SVG 1.1//EN" "http://www.w3.org/Graphics/SVG/1.1/DTD/svg11.dtd">
<svg version="1.1" xmlns="http://www.w3.org/2000/svg" xmlns:xlink="http://www.w3.org/1999/xlink" x="0" y="0" width="568.027" height="345.333" viewBox="0, 0, 568.027, 345.333">
  <g id="Layer_1">
    <g>
      <path d="M-0,0 L568.027,0 L568.027,345.333 L-0,345.333 L-0,0 z" fill="#FFFFFF"/>
      <path d="M293.7,126.836 L293.7,143.836 L310.7,135.452 L293.7,126.836" fill="#000000"/>
      <path d="M351.7,126.836 L351.7,143.836 L334.7,135.452 L351.7,126.836" fill="#000000"/>
      <g>
        <path d="M366.494,230.667 C366.494,226.985 369.479,224 373.16,224 C376.842,224 379.827,226.985 379.827,230.667 C379.827,234.349 376.842,237.333 373.16,237.333 C369.479,237.333 366.494,234.349 366.494,230.667 z" fill="#FFFFFF"/>
        <path d="M366.494,230.667 C366.494,226.985 369.479,224 373.16,224 C376.842,224 379.827,226.985 379.827,230.667 C379.827,234.349 376.842,237.333 373.16,237.333 C369.479,237.333 366.494,234.349 366.494,230.667 z" fill-opacity="0" stroke="#000000" stroke-width="3"/>
      </g>
      <g>
        <path d="M316.533,230.667 C316.533,226.985 319.518,224 323.2,224 C326.881,224 329.866,226.985 329.866,230.667 C329.866,234.349 326.881,237.333 323.2,237.333 C319.518,237.333 316.533,234.349 316.533,230.667 z" fill="#FFFFFF"/>
        <path d="M316.533,230.667 C316.533,226.985 319.518,224 323.2,224 C326.881,224 329.866,226.985 329.866,230.667 C329.866,234.349 326.881,237.333 323.2,237.333 C319.518,237.333 316.533,234.349 316.533,230.667 z" fill-opacity="0" stroke="#000000" stroke-width="3"/>
      </g>
      <g>
        <path d="M174.495,30.923 L174.495,266.668" fill-opacity="0" stroke="#000000" stroke-width="3"/>
        <g>
          <path d="M117.495,125.296 L230.495,125.296 L230.495,177.296 L117.495,177.296 L117.495,125.296 z" fill="#FFFFFF"/>
          <path d="M117.495,125.296 L230.495,125.296 L230.495,177.296 L117.495,177.296 L117.495,125.296 z" fill-opacity="0" stroke="#000000" stroke-width="3"/>
        </g>
        <g>
          <path d="M167.828,24.256 C167.828,20.575 170.813,17.59 174.495,17.59 C178.177,17.59 181.162,20.575 181.162,24.256 C181.162,27.938 178.177,30.923 174.495,30.923 C170.813,30.923 167.828,27.938 167.828,24.256 z" fill="#FFFFFF"/>
          <path d="M167.828,24.256 C167.828,20.575 170.813,17.59 174.495,17.59 C178.177,17.59 181.162,20.575 181.162,24.256 C181.162,27.938 178.177,30.923 174.495,30.923 C170.813,30.923 167.828,27.938 167.828,24.256 z" fill-opacity="0" stroke="#000000" stroke-width="3"/>
        </g>
        <g>
          <path d="M167.828,273.335 C167.828,269.653 170.813,266.668 174.495,266.668 C178.177,266.668 181.162,269.653 181.162,273.335 C181.162,277.016 178.177,280.001 174.495,280.001 C170.813,280.001 167.828,277.016 167.828,273.335 z" fill="#FFFFFF"/>
          <path d="M167.828,273.335 C167.828,269.653 170.813,266.668 174.495,266.668 C178.177,266.668 181.162,269.653 181.162,273.335 C181.162,277.016 178.177,280.001 174.495,280.001 C170.813,280.001 167.828,277.016 167.828,273.335 z" fill-opacity="0" stroke="#000000" stroke-width="3"/>
        </g>
      </g>
      <g>
        <path d="M316.533,182 C316.533,178.318 319.518,175.333 323.2,175.333 C326.881,175.333 329.866,178.318 329.866,182 C329.866,185.682 326.881,188.667 323.2,188.667 C319.518,188.667 316.533,185.682 316.533,182 z" fill="#FFFFFF"/>
        <path d="M316.533,182 C316.533,178.318 319.518,175.333 323.2,175.333 C326.881,175.333 329.866,178.318 329.866,182 C329.866,185.682 326.881,188.667 323.2,188.667 C319.518,188.667 316.533,185.682 316.533,182 z" fill-opacity="0" stroke="#000000" stroke-width="3"/>
      </g>
      <g>
        <path d="M265.161,230.667 C265.161,226.985 268.145,224 271.827,224 C275.509,224 278.494,226.985 278.494,230.667 C278.494,234.349 275.509,237.333 271.827,237.333 C268.145,237.333 265.161,234.349 265.161,230.667 z" fill="#FFFFFF"/>
        <path d="M265.161,230.667 C265.161,226.985 268.145,224 271.827,224 C275.509,224 278.494,226.985 278.494,230.667 C278.494,234.349 275.509,237.333 271.827,237.333 C268.145,237.333 265.161,234.349 265.161,230.667 z" fill-opacity="0" stroke="#000000" stroke-width="3"/>
      </g>
      <path d="M373.16,224 L373.16,135.333" fill-opacity="0" stroke="#000000" stroke-width="3"/>
      <path d="M323.199,224 L323.199,188.667" fill-opacity="0" stroke="#000000" stroke-width="3"/>
      <path d="M323.2,175.333 L311.2,132" fill-opacity="0" stroke="#000000" stroke-width="3"/>
      <path d="M373.16,135.333 L349.2,135.333" fill-opacity="0" stroke="#000000" stroke-width="3"/>
      <path d="M297.2,135.333 L271.827,135.333" fill-opacity="0" stroke="#000000" stroke-width="3"/>
      <path d="M271.827,135.333 L271.827,224" fill-opacity="0" stroke="#000000" stroke-width="3"/>
      <text transform="matrix(1, 0, 0, 1, 327.818, 321.874)">
        <tspan x="-49.824" y="7" font-family="Avenir-Medium" font-size="24" fill="#656565">Common</tspan>
      </text>
      <text transform="matrix(1, 0, 0, 1, 250.876, 254.667)">
        <tspan x="-49.332" y="6.167" font-family="Avenir-Medium" font-size="24" fill="#656565">Normally</tspan>
      </text>
      <text transform="matrix(1, 0, 0, 1, 415.818, 254.667)">
        <tspan x="-49.332" y="6.167" font-family="Avenir-Medium" font-size="24" fill="#656565">Normally</tspan>
      </text>
      <text transform="matrix(1, 0, 0, 1, 250.876, 277.521)">
        <tspan x="-35.124" y="5.647" font-family="Avenir-Medium" font-size="24" fill="#656565">closed</tspan>
      </text>
      <text transform="matrix(1, 0, 0, 1, 415.818, 277.521)">
        <tspan x="-27.804" y="5.647" font-family="Avenir-Medium" font-size="24" fill="#656565">open</tspan>
      </text>
      <g>
        <path d="M323.199,310.001 L323.199,258.601" fill-opacity="0" stroke="#A3A3A3" stroke-width="4"/>
        <path d="M323.199,258.601 L327.999,261.801 L323.199,249.001 L318.399,261.801 z" fill="#A3A3A3" fill-opacity="1" stroke="#A3A3A3" stroke-width="4" stroke-opacity="1"/>
      </g>
    </g>
  </g>
</svg>
